# xmcd
#
# Track frame offsets:
#	150
#	12695
#	24927
#	43310
#	54282
#	67360
#	78670
#	92290
#	102445
#	112470
#	123257
#
# Disc length: 1797 seconds
#
# Revision: 2
# Processed by: cddbd v1.5.2PL0 Copyright (c) Steve Scherf et al.
# Submitted via: audiograbber 1.83.01
#
DISCID=9907030b
DTITLE=New Riders Of The Purple Sage - Adventures Of Panama Red
DYEAR=1973
DGENRE=CountryRock
TTITLE0=Panama Red
TTITLE1=It's Alright With Me
TTITLE2=Lonesome L.A. Cowboy
TTITLE3=Important Exportin Man
TTITLE4=One Too Many Stories
TTITLE5=Kick In The Head
TTITLE6=You Should Have Seen Me Runnin
TTITLE7=Teardrops In My Eyes
TTITLE8=L.A. Lady
TTITLE9=Thank The Day
TTITLE10=Cement, Clay And Glass
EXTD=
EXTT0=
EXTT1=
EXTT2=
EXTT3=
EXTT4=
EXTT5=
EXTT6=
EXTT7=
EXTT8=
EXTT9=
EXTT10=
PLAYORDER=
